<svg xmlns="http://www.w3.org/2000/svg" viewBox="0 0 128 128" width="128" height="128">
  <!-- Background circle -->
  <circle cx="64" cy="64" r="60" fill="#3B82F6" opacity="0.1"/>

  <!-- Main icon scaled and centered -->
  <g transform="translate(64, 64) scale(2.5) translate(-12, -12)">
    <path stroke="none" d="M0 0h24v24H0z" fill="none"/>
    <path d="M14 3v4a1 1 0 0 0 1 1h4" stroke="#3B82F6" stroke-width="2" stroke-linecap="round" stroke-linejoin="round" fill="none"/>
    <path d="M5 7v-2a2 2 0 0 1 2 -2h7l5 5v2" stroke="#3B82F6" stroke-width="2" stroke-linecap="round" stroke-linejoin="round" fill="none"/>
    <path d="M19 19a2 2 0 0 1 -2 2h-10a2 2 0 0 1 -2 -2" stroke="#3B82F6" stroke-width="2" stroke-linecap="round" stroke-linejoin="round" fill="none"/>
    <path d="M5 16h.01" stroke="#EF4444" stroke-width="2" stroke-linecap="round" stroke-linejoin="round"/>
    <path d="M5 13h.01" stroke="#EF4444" stroke-width="2" stroke-linecap="round" stroke-linejoin="round"/>
    <path d="M5 10h.01" stroke="#EF4444" stroke-width="2" stroke-linecap="round" stroke-linejoin="round"/>
    <path d="M19 13h.01" stroke="#EF4444" stroke-width="2" stroke-linecap="round" stroke-linejoin="round"/>
    <path d="M19 16h.01" stroke="#EF4444" stroke-width="2" stroke-linecap="round" stroke-linejoin="round"/>
  </g>
</svg>
